<svg width="197" height="294" viewBox="0 0 197 294" fill="none" xmlns="http://www.w3.org/2000/svg">
<g filter="url(#filter0_d_0_1)">
<path d="M60.5 98.1878L134.5 132.688V93.6878L60.5 59.1878V98.1878Z" fill="#D9D9D9"/>
<path d="M124 178.188L53 225.688V257.688L124 211.688V178.188Z" fill="#D9D9D9"/>
<path d="M119.5 25.1878L191.5 53.1879L182.5 0.687897L119.5 25.1878Z" fill="#D9D9D9"/>
<path d="M86.5 193.688L51.5 217.188L4.5 187.188V143.188L86.5 193.688Z" fill="#D9D9D9"/>
<path d="M122 170.188L94.5 187.188L31.5 149.188L58 134.188L122 170.188Z" fill="#D9D9D9"/>
<path d="M24 144.688L7 134.688L56 104.688L75.5 114.188L24 144.688Z" fill="#D9D9D9"/>
<path d="M140 86.1879L63 51.6878L114 30.6878L187.5 59.1878L140 86.1879Z" fill="#D9D9D9"/>
<path d="M56 267.688L157 285.188L128 221.188L92 244.438L56 267.688Z" fill="#D9D9D9"/>
<path d="M60.5 98.1878L134.5 132.688V93.6878L60.5 59.1878V98.1878Z" stroke="#D9D9D9"/>
<path d="M124 178.188L53 225.688V257.688L124 211.688V178.188Z" stroke="#D9D9D9"/>
<path d="M119.5 25.1878L191.5 53.1879L182.5 0.687897L119.5 25.1878Z" stroke="#D9D9D9"/>
<path d="M86.5 193.688L51.5 217.188L4.5 187.188V143.188L86.5 193.688Z" stroke="#D9D9D9"/>
<path d="M122 170.188L94.5 187.188L31.5 149.188L58 134.188L122 170.188Z" stroke="#D9D9D9"/>
<path d="M24 144.688L7 134.688L56 104.688L75.5 114.188L24 144.688Z" stroke="#D9D9D9"/>
<path d="M140 86.1879L63 51.6878L114 30.6878L187.5 59.1878L140 86.1879Z" stroke="#D9D9D9"/>
<path d="M56 267.688L157 285.188L128 221.188L92 244.438L56 267.688Z" stroke="#D9D9D9"/>
</g>
<defs>
<filter id="filter0_d_0_1" x="0" y="0" width="196.142" height="293.842" filterUnits="userSpaceOnUse" color-interpolation-filters="sRGB">
<feFlood flood-opacity="0" result="BackgroundImageFix"/>
<feColorMatrix in="SourceAlpha" type="matrix" values="0 0 0 0 0 0 0 0 0 0 0 0 0 0 0 0 0 0 127 0" result="hardAlpha"/>
<feOffset dy="4"/>
<feGaussianBlur stdDeviation="2"/>
<feComposite in2="hardAlpha" operator="out"/>
<feColorMatrix type="matrix" values="0 0 0 0 0 0 0 0 0 0 0 0 0 0 0 0 0 0 0.25 0"/>
<feBlend mode="normal" in2="BackgroundImageFix" result="effect1_dropShadow_0_1"/>
<feBlend mode="normal" in="SourceGraphic" in2="effect1_dropShadow_0_1" result="shape"/>
</filter>
</defs>
</svg>
